<?xml version="1.0" encoding="UTF-8" standalone="no"?>
<svg
   xmlns:dc="http://purl.org/dc/elements/1.1/"
   xmlns:cc="http://creativecommons.org/ns#"
   xmlns:rdf="http://www.w3.org/1999/02/22-rdf-syntax-ns#"
   xmlns:svg="http://www.w3.org/2000/svg"
   xmlns="http://www.w3.org/2000/svg"
   xmlns:sodipodi="http://sodipodi.sourceforge.net/DTD/sodipodi-0.dtd"
   xmlns:inkscape="http://www.inkscape.org/namespaces/inkscape"
   version="1.0"
   width="14.07mm"
   height="11mm"
   id="svg42"
   sodipodi:docname="3x3_grid1.svg"
   inkscape:version="0.92.3 (2405546, 2018-03-11)">
  <metadata
     id="metadata46">
    <rdf:RDF>
      <cc:Work
         rdf:about="">
        <dc:format>image/svg+xml</dc:format>
        <dc:type
           rdf:resource="http://purl.org/dc/dcmitype/StillImage" />
      </cc:Work>
    </rdf:RDF>
  </metadata>
  <sodipodi:namedview
     pagecolor="#ffffff"
     bordercolor="#666666"
     borderopacity="1"
     objecttolerance="10"
     gridtolerance="10"
     guidetolerance="10"
     inkscape:pageopacity="0"
     inkscape:pageshadow="2"
     inkscape:window-width="1920"
     inkscape:window-height="986"
     id="namedview44"
     showgrid="false"
     inkscape:zoom="18.352462"
     inkscape:cx="26.588976"
     inkscape:cy="21.204172"
     inkscape:window-x="-11"
     inkscape:window-y="-11"
     inkscape:window-maximized="1"
     inkscape:current-layer="svg42" />
  <defs
     id="defs14">
    <clipPath
       clipPathUnits="userSpaceOnUse"
       id="clipEmfPath1">
      <path
         d="M 3.8376741,3.8376741 L 57.085403,3.8376741 L 57.085403,45.57238 L 3.8376741,45.57238 z"
         id="path10" />
    </clipPath>
    <pattern
       id="EMFhbasepattern"
       patternUnits="userSpaceOnUse"
       width="6"
       height="6"
       x="0"
       y="0" />
  </defs>
  <path
     style="fill:#ffff00;fill-opacity:1;fill-rule:evenodd;stroke:none;stroke-width:0.75854725"
     d="M 5.4818862,7.8248956 V 38.813366 H 42.204024 V 7.8248956 Z"
     id="path16"
     inkscape:connector-curvature="0" />
  <path
     style="fill:none;stroke:#2f528f;stroke-width:1.27922475px;stroke-linecap:butt;stroke-linejoin:miter;stroke-miterlimit:8;stroke-dasharray:none;stroke-opacity:1"
     clip-path="url(#clipEmfPath1)"
     d="M 5.0369473,5.0369473 H 55.726227 V 44.053301 H 5.0369473 Z"
     id="path18"
     inkscape:connector-curvature="0"
     transform="matrix(0.72445571,0,0,0.79424311,1.832841,3.8243349)" />
  <path
     style="fill:#0000ff;fill-opacity:1;fill-rule:evenodd;stroke:none;stroke-width:0.56242317"
     d="m 14.543048,17.69838 1.12389,-0.269866 0.786722,-0.674666 0.157344,-0.944529 -0.157344,-0.94453 -0.786722,-0.674665 -1.12389,-0.269867 -1.123889,0.269867 -0.786722,0.674665 -0.337166,0.94453 0.337166,0.944529 0.786722,0.674666 z"
     id="path20"
     inkscape:connector-curvature="0" />
  <path
     style="fill:#ffff00;fill-opacity:1;fill-rule:evenodd;stroke:none;stroke-width:0.56242317"
     d="m 21.690983,17.203626 1.123889,-0.269866 0.8092,-0.674665 0.31469,-0.94453 -0.31469,-0.944531 -0.8092,-0.674664 -1.123889,-0.269867 -1.123888,0.269867 -0.786724,0.674664 -0.337166,0.944531 0.337166,0.94453 0.786724,0.674665 z"
     id="path22"
     inkscape:connector-curvature="0" />
  <path
     style="fill:none;stroke:#0000ff;stroke-width:0.6295324px;stroke-linecap:round;stroke-linejoin:round;stroke-miterlimit:10;stroke-dasharray:none;stroke-opacity:1"
     d="m 21.690983,17.203626 1.123889,-0.269866 0.8092,-0.674665 0.31469,-0.94453 -0.31469,-0.944531 -0.8092,-0.674664 -1.123889,-0.269867 -1.123888,0.269867 -0.786724,0.674664 -0.337166,0.944531 0.337166,0.94453 0.786724,0.674665 z"
     id="path24"
     inkscape:connector-curvature="0" />
  <path
     style="fill:#0000ff;fill-opacity:1;fill-rule:evenodd;stroke:none;stroke-width:0.56242317"
     d="m 30.637139,17.69838 1.12389,-0.269866 0.809199,-0.674666 0.314691,-0.944529 -0.314691,-0.94453 -0.809199,-0.674665 -1.12389,-0.269867 -1.123888,0.269867 -0.786723,0.674665 -0.337166,0.94453 0.337166,0.944529 0.786723,0.674666 z"
     id="path26"
     inkscape:connector-curvature="0" />
  <path
     style="fill:#0000ff;fill-opacity:1;fill-rule:evenodd;stroke:none;stroke-width:0.56242317"
     d="m 14.003582,25.52449 1.123888,-0.112445 0.786723,-0.674663 0.157345,-0.944532 -0.157345,-0.922041 -0.786723,-0.809597 -1.123888,-0.134934 -1.123889,0.134934 -0.786722,0.809597 -0.337167,0.922041 0.337167,0.944532 0.786722,0.674663 z"
     id="path28"
     inkscape:connector-curvature="0" />
  <path
     style="fill:none;stroke:#0000ff;stroke-width:0.6295324px;stroke-linecap:round;stroke-linejoin:round;stroke-miterlimit:10;stroke-dasharray:none;stroke-opacity:1"
     d="m 22.365317,25.569468 1.146366,-0.112445 0.809201,-0.674665 0.157344,-0.94453 -0.157344,-0.922042 -0.809201,-0.809598 -1.146366,-0.134932 -1.146367,0.134932 -0.8092,0.809598 -0.337168,0.922042 0.337168,0.94453 0.8092,0.674665 z"
     id="path30"
     inkscape:connector-curvature="0" />
  <path
     style="fill:none;stroke:#0000ff;stroke-width:0.6295324px;stroke-linecap:round;stroke-linejoin:round;stroke-miterlimit:10;stroke-dasharray:none;stroke-opacity:1"
     d="m 30.682096,25.029735 1.123888,-0.112443 0.809201,-0.674665 0.314689,-0.944531 -0.314689,-0.922041 -0.809201,-0.809598 -1.123888,-0.134932 -1.123889,0.134932 -0.786723,0.809598 -0.337167,0.922041 0.337167,0.944531 0.786723,0.674665 z"
     id="path32"
     inkscape:connector-curvature="0" />
  <path
     style="fill:#0000ff;fill-opacity:1;fill-rule:evenodd;stroke:none;stroke-width:0.56242317"
     d="m 14.003582,32.451047 1.123888,-0.269866 0.786723,-0.674665 0.157345,-0.94453 -0.157345,-0.94453 -0.786723,-0.674665 -1.123888,-0.269866 -1.123889,0.269866 -0.786722,0.674665 -0.337167,0.94453 0.337167,0.94453 0.786722,0.674665 z"
     id="path34"
     inkscape:connector-curvature="0" />
  <path
     style="fill:#0000ff;fill-opacity:1;fill-rule:evenodd;stroke:none;stroke-width:0.56242317"
     d="m 22.814872,32.451047 1.12389,-0.269866 0.809199,-0.674665 0.314689,-0.94453 -0.314689,-0.94453 -0.809199,-0.674665 -1.12389,-0.269866 -1.123889,0.269866 -0.786722,0.674665 -0.337166,0.94453 0.337166,0.94453 0.786722,0.674665 z"
     id="path36"
     inkscape:connector-curvature="0" />
  <path
     style="fill:#ffff00;fill-opacity:1;fill-rule:evenodd;stroke:none;stroke-width:0.56242317"
     d="m 30.142629,31.956293 1.123889,-0.269866 0.8092,-0.674665 0.314688,-0.94453 -0.314688,-0.94453 -0.8092,-0.674665 -1.123889,-0.269866 -1.12389,0.269866 -0.786722,0.674665 -0.337166,0.94453 0.337166,0.94453 0.786722,0.674665 z"
     id="path38"
     inkscape:connector-curvature="0" />
  <path
     style="fill:none;stroke:#0000ff;stroke-width:0.6295324px;stroke-linecap:round;stroke-linejoin:round;stroke-miterlimit:10;stroke-dasharray:none;stroke-opacity:1"
     d="m 30.142629,31.956293 1.123889,-0.269866 0.8092,-0.674665 0.314688,-0.94453 -0.314688,-0.94453 -0.8092,-0.674665 -1.123889,-0.269866 -1.12389,0.269866 -0.786722,0.674665 -0.337166,0.94453 0.337166,0.94453 0.786722,0.674665 z"
     id="path40"
     inkscape:connector-curvature="0" />
</svg>
