<?xml version="1.0" encoding="UTF-8" standalone="no"?>
<svg
   xmlns:dc="http://purl.org/dc/elements/1.1/"
   xmlns:cc="http://creativecommons.org/ns#"
   xmlns:rdf="http://www.w3.org/1999/02/22-rdf-syntax-ns#"
   xmlns:svg="http://www.w3.org/2000/svg"
   xmlns="http://www.w3.org/2000/svg"
   xmlns:sodipodi="http://sodipodi.sourceforge.net/DTD/sodipodi-0.dtd"
   xmlns:inkscape="http://www.inkscape.org/namespaces/inkscape"
   version="1.0"
   width="16.49mm"
   height="20.209999mm"
   id="svg181"
   sodipodi:docname="3x3_grid3.svg"
   inkscape:version="0.92.3 (2405546, 2018-03-11)">
  <metadata
     id="metadata185">
    <rdf:RDF>
      <cc:Work
         rdf:about="">
        <dc:format>image/svg+xml</dc:format>
        <dc:type
           rdf:resource="http://purl.org/dc/dcmitype/StillImage" />
        <dc:title></dc:title>
      </cc:Work>
    </rdf:RDF>
  </metadata>
  <sodipodi:namedview
     pagecolor="#ffffff"
     bordercolor="#666666"
     borderopacity="1"
     objecttolerance="10"
     gridtolerance="10"
     guidetolerance="10"
     inkscape:pageopacity="0"
     inkscape:pageshadow="2"
     inkscape:window-width="640"
     inkscape:window-height="480"
     id="namedview183"
     showgrid="false"
     inkscape:zoom="3.0896422"
     inkscape:cx="31.162204"
     inkscape:cy="38.192124"
     inkscape:window-x="0"
     inkscape:window-y="0"
     inkscape:window-maximized="0"
     inkscape:current-layer="svg181" />
  <defs
     id="defs115">
    <pattern
       id="EMFhbasepattern"
       patternUnits="userSpaceOnUse"
       width="6"
       height="6"
       x="0"
       y="0" />
  </defs>
  <path
     style="fill:#ffff00;fill-rule:evenodd;fill-opacity:1;stroke:none;"
     d="  M 10.313749,20.547547   L 10.313749,65.000606   L 50.929134,65.000606   L 50.929134,20.547547   L 10.313749,20.547547   z "
     id="path117" />
  <path
     style="fill:none;stroke:#2f528f;stroke-width:1.2792248px;stroke-linecap:butt;stroke-linejoin:miter;stroke-miterlimit:8;stroke-dasharray:none;stroke-opacity:1;"
     d="  M 10.313749,20.547547   L 50.929134,20.547547   L 50.929134,65.000606   L 10.313749,65.000606   z "
     id="path119" />
  <path
     style="fill:#ffffff;fill-rule:evenodd;fill-opacity:1;stroke:none;"
     d="  M 44.133253,6.7958813   L 46.092065,6.3961236   L 47.171411,5.1168988   L 47.571169,3.4379164   L 47.171411,1.758934   L 46.092065,0.51968504   L 44.133253,0.079951545   L 42.414294,0.51968504   L 41.374924,1.758934   L 40.695336,3.4379164   L 41.374924,5.1168988   L 42.414294,6.3961236   L 44.133253,6.7958813   z "
     id="path121" />
  <path
     style="fill:#ffffff;fill-rule:evenodd;fill-opacity:1;stroke:none;"
     d="  M 57.924894,6.7958813   L 59.643852,6.3961236   L 60.683222,5.1168988   L 61.322835,3.4379164   L 60.683222,1.758934   L 59.643852,0.51968504   L 57.924894,0.079951545   L 56.205936,0.51968504   L 54.926711,1.758934   L 54.287099,3.4379164   L 54.926711,5.1168988   L 56.205936,6.3961236   L 57.924894,6.7958813   z "
     id="path123" />
  <path
     style="fill:#ffffff;fill-rule:evenodd;fill-opacity:1;stroke:none;"
     d="  M 44.133253,20.547547   L 46.092065,20.147789   L 47.171411,18.828589   L 47.571169,17.109631   L 47.171411,15.390672   L 46.092065,14.111448   L 44.133253,13.671714   L 42.414294,14.111448   L 41.374924,15.390672   L 40.695336,17.109631   L 41.374924,18.828589   L 42.414294,20.147789   L 44.133253,20.547547   z "
     id="path125" />
  <path
     style="fill:#ffffff;fill-rule:evenodd;fill-opacity:1;stroke:none;"
     d="  M 3.4379164,34.13931   L 5.1168988,33.739552   L 6.3961236,32.460327   L 6.7958813,30.781345   L 6.3961236,29.102362   L 5.1168988,27.863113   L 3.4379164,27.42338   L 1.758934,27.863113   L 0.51968504,29.102362   L 0.079951545,30.781345   L 0.51968504,32.460327   L 1.758934,33.739552   L 3.4379164,34.13931   L 3.4379164,34.13931   z "
     id="path127" />
  <path
     style="fill:#0000ff;fill-rule:evenodd;fill-opacity:1;stroke:none;"
     d="  M 17.029679,34.13931   L 18.708661,33.739552   L 19.987886,32.460327   L 20.387644,30.781345   L 19.987886,29.102362   L 18.708661,27.863113   L 17.029679,27.42338   L 15.350697,27.863113   L 14.311326,29.102362   L 13.671714,30.781345   L 14.311326,32.460327   L 15.350697,33.739552   L 17.029679,34.13931   z "
     id="path129" />
  <path
     style="fill:none;stroke:#0000ff;stroke-width:1.2792248px;stroke-linecap:round;stroke-linejoin:round;stroke-miterlimit:10;stroke-dasharray:none;stroke-opacity:1;"
     d="  M 17.029679,34.13931   L 18.708661,33.739552   L 19.987886,32.460327   L 20.387644,30.781345   L 19.987886,29.102362   L 18.708661,27.863113   L 17.029679,27.42338   L 15.350697,27.863113   L 14.311326,29.102362   L 13.671714,30.781345   L 14.311326,32.460327   L 15.350697,33.739552   L 17.029679,34.13931   z "
     id="path131" />
  <path
     style="fill:#0000ff;fill-rule:evenodd;fill-opacity:1;stroke:none;"
     d="  M 30.621442,34.13931   L 32.300424,33.739552   L 33.579649,32.460327   L 33.979406,30.781345   L 33.579649,29.102362   L 32.300424,27.863113   L 30.621442,27.42338   L 28.942459,27.863113   L 27.903089,29.102362   L 27.263477,30.781345   L 27.903089,32.460327   L 28.942459,33.739552   L 30.621442,34.13931   z "
     id="path133" />
  <path
     style="fill:none;stroke:#0000ff;stroke-width:1.2792248px;stroke-linecap:round;stroke-linejoin:round;stroke-miterlimit:10;stroke-dasharray:none;stroke-opacity:1;"
     d="  M 30.621442,34.13931   L 32.300424,33.739552   L 33.579649,32.460327   L 33.979406,30.781345   L 33.579649,29.102362   L 32.300424,27.863113   L 30.621442,27.42338   L 28.942459,27.863113   L 27.903089,29.102362   L 27.263477,30.781345   L 27.903089,32.460327   L 28.942459,33.739552   L 30.621442,34.13931   z "
     id="path135" />
  <path
     style="fill:#0000ff;fill-rule:evenodd;fill-opacity:1;stroke:none;"
     d="  M 44.133253,34.13931   L 46.092065,33.739552   L 47.171411,32.460327   L 47.571169,30.781345   L 47.171411,29.102362   L 46.092065,27.863113   L 44.133253,27.42338   L 42.414294,27.863113   L 41.374924,29.102362   L 40.695336,30.781345   L 41.374924,32.460327   L 42.414294,33.739552   L 44.133253,34.13931   z "
     id="path137" />
  <path
     style="fill:none;stroke:#0000ff;stroke-width:1.2792248px;stroke-linecap:round;stroke-linejoin:round;stroke-miterlimit:10;stroke-dasharray:none;stroke-opacity:1;"
     d="  M 44.133253,34.13931   L 46.092065,33.739552   L 47.171411,32.460327   L 47.571169,30.781345   L 47.171411,29.102362   L 46.092065,27.863113   L 44.133253,27.42338   L 42.414294,27.863113   L 41.374924,29.102362   L 40.695336,30.781345   L 41.374924,32.460327   L 42.414294,33.739552   L 44.133253,34.13931   z "
     id="path139" />
  <path
     style="fill:#ffffff;fill-rule:evenodd;fill-opacity:1;stroke:none;"
     d="  M 17.029679,47.890975   L 18.708661,47.491217   L 19.987886,46.172017   L 20.387644,44.453059   L 19.987886,42.734101   L 18.708661,41.454876   L 17.029679,41.015142   L 15.350697,41.454876   L 14.311326,42.734101   L 13.671714,44.453059   L 14.311326,46.172017   L 15.350697,47.491217   L 17.029679,47.890975   z "
     id="path141" />
  <path
     style="fill:#ffff00;fill-rule:evenodd;fill-opacity:1;stroke:none;"
     d="  M 17.029679,47.890975   L 18.708661,47.491217   L 19.987886,46.172017   L 20.387644,44.453059   L 19.987886,42.734101   L 18.708661,41.454876   L 17.029679,41.015142   L 15.350697,41.454876   L 14.311326,42.734101   L 13.671714,44.453059   L 14.311326,46.172017   L 15.350697,47.491217   L 17.029679,47.890975   z "
     id="path143" />
  <path
     style="fill:none;stroke:#0000ff;stroke-width:1.2792248px;stroke-linecap:round;stroke-linejoin:round;stroke-miterlimit:10;stroke-dasharray:none;stroke-opacity:1;"
     d="  M 17.029679,47.890975   L 18.708661,47.491217   L 19.987886,46.172017   L 20.387644,44.453059   L 19.987886,42.734101   L 18.708661,41.454876   L 17.029679,41.015142   L 15.350697,41.454876   L 14.311326,42.734101   L 13.671714,44.453059   L 14.311326,46.172017   L 15.350697,47.491217   L 17.029679,47.890975   z "
     id="path145" />
  <path
     style="fill:#0000ff;fill-rule:evenodd;fill-opacity:1;stroke:none;"
     d="  M 30.621442,47.890975   L 32.300424,47.491217   L 33.579649,46.172017   L 33.979406,44.453059   L 33.579649,42.734101   L 32.300424,41.454876   L 30.621442,41.015142   L 28.942459,41.454876   L 27.903089,42.734101   L 27.263477,44.453059   L 27.903089,46.172017   L 28.942459,47.491217   L 30.621442,47.890975   z "
     id="path147" />
  <path
     style="fill:none;stroke:#0000ff;stroke-width:1.2792248px;stroke-linecap:round;stroke-linejoin:round;stroke-miterlimit:10;stroke-dasharray:none;stroke-opacity:1;"
     d="  M 30.621442,47.890975   L 32.300424,47.491217   L 33.579649,46.172017   L 33.979406,44.453059   L 33.579649,42.734101   L 32.300424,41.454876   L 30.621442,41.015142   L 28.942459,41.454876   L 27.903089,42.734101   L 27.263477,44.453059   L 27.903089,46.172017   L 28.942459,47.491217   L 30.621442,47.890975   z "
     id="path149" />
  <path
     style="fill:#ffffff;fill-rule:evenodd;fill-opacity:1;stroke:none;"
     d="  M 44.133253,47.890975   L 46.092065,47.491217   L 47.171411,46.172017   L 47.571169,44.453059   L 47.171411,42.734101   L 46.092065,41.454876   L 44.133253,41.015142   L 42.414294,41.454876   L 41.374924,42.734101   L 40.695336,44.453059   L 41.374924,46.172017   L 42.414294,47.491217   L 44.133253,47.890975   z "
     id="path151" />
  <path
     style="fill:#ffff00;fill-rule:evenodd;fill-opacity:1;stroke:none;"
     d="  M 44.133253,47.890975   L 46.092065,47.491217   L 47.171411,46.172017   L 47.571169,44.453059   L 47.171411,42.734101   L 46.092065,41.454876   L 44.133253,41.015142   L 42.414294,41.454876   L 41.374924,42.734101   L 40.695336,44.453059   L 41.374924,46.172017   L 42.414294,47.491217   L 44.133253,47.890975   z "
     id="path153" />
  <path
     style="fill:none;stroke:#0000ff;stroke-width:1.2792248px;stroke-linecap:round;stroke-linejoin:round;stroke-miterlimit:10;stroke-dasharray:none;stroke-opacity:1;"
     d="  M 44.133253,47.890975   L 46.092065,47.491217   L 47.171411,46.172017   L 47.571169,44.453059   L 47.171411,42.734101   L 46.092065,41.454876   L 44.133253,41.015142   L 42.414294,41.454876   L 41.374924,42.734101   L 40.695336,44.453059   L 41.374924,46.172017   L 42.414294,47.491217   L 44.133253,47.890975   z "
     id="path155" />
  <path
     style="fill:#ffffff;fill-rule:evenodd;fill-opacity:1;stroke:none;"
     d="  M 3.4379164,61.482738   L 5.1168988,61.08298   L 6.3961236,59.803755   L 6.7958813,58.124773   L 6.3961236,56.44579   L 5.1168988,55.206541   L 3.4379164,54.766808   L 1.758934,55.206541   L 0.51968504,56.44579   L 0.079951545,58.124773   L 0.51968504,59.803755   L 1.758934,61.08298   L 3.4379164,61.482738   z "
     id="path157" />
  <path
     style="fill:#0000ff;fill-rule:evenodd;fill-opacity:1;stroke:none;"
     d="  M 17.029679,61.482738   L 18.708661,61.08298   L 19.987886,59.803755   L 20.387644,58.124773   L 19.987886,56.44579   L 18.708661,55.206541   L 17.029679,54.766808   L 15.350697,55.206541   L 14.311326,56.44579   L 13.671714,58.124773   L 14.311326,59.803755   L 15.350697,61.08298   L 17.029679,61.482738   z "
     id="path159" />
  <path
     style="fill:none;stroke:#0000ff;stroke-width:1.2792248px;stroke-linecap:round;stroke-linejoin:round;stroke-miterlimit:10;stroke-dasharray:none;stroke-opacity:1;"
     d="  M 17.029679,61.482738   L 18.708661,61.08298   L 19.987886,59.803755   L 20.387644,58.124773   L 19.987886,56.44579   L 18.708661,55.206541   L 17.029679,54.766808   L 15.350697,55.206541   L 14.311326,56.44579   L 13.671714,58.124773   L 14.311326,59.803755   L 15.350697,61.08298   L 17.029679,61.482738   z "
     id="path161" />
  <path
     style="fill:#ffffff;fill-rule:evenodd;fill-opacity:1;stroke:none;"
     d="  M 30.621442,61.482738   L 32.300424,61.08298   L 33.579649,59.803755   L 33.979406,58.124773   L 33.579649,56.44579   L 32.300424,55.206541   L 30.621442,54.766808   L 28.942459,55.206541   L 27.903089,56.44579   L 27.263477,58.124773   L 27.903089,59.803755   L 28.942459,61.08298   L 30.621442,61.482738   z "
     id="path163" />
  <path
     style="fill:#ffff00;fill-rule:evenodd;fill-opacity:1;stroke:none;"
     d="  M 30.621442,61.482738   L 32.300424,61.08298   L 33.579649,59.803755   L 33.979406,58.124773   L 33.579649,56.44579   L 32.300424,55.206541   L 30.621442,54.766808   L 28.942459,55.206541   L 27.903089,56.44579   L 27.263477,58.124773   L 27.903089,59.803755   L 28.942459,61.08298   L 30.621442,61.482738   z "
     id="path165" />
  <path
     style="fill:none;stroke:#0000ff;stroke-width:1.2792248px;stroke-linecap:round;stroke-linejoin:round;stroke-miterlimit:10;stroke-dasharray:none;stroke-opacity:1;"
     d="  M 30.621442,61.482738   L 32.300424,61.08298   L 33.579649,59.803755   L 33.979406,58.124773   L 33.579649,56.44579   L 32.300424,55.206541   L 30.621442,54.766808   L 28.942459,55.206541   L 27.903089,56.44579   L 27.263477,58.124773   L 27.903089,59.803755   L 28.942459,61.08298   L 30.621442,61.482738   z "
     id="path167" />
  <path
     style="fill:#ffffff;fill-rule:evenodd;fill-opacity:1;stroke:none;"
     d="  M 44.133253,61.482738   L 46.092065,61.08298   L 47.171411,59.803755   L 47.571169,58.124773   L 47.171411,56.44579   L 46.092065,55.206541   L 44.133253,54.766808   L 42.414294,55.206541   L 41.374924,56.44579   L 40.695336,58.124773   L 41.374924,59.803755   L 42.414294,61.08298   L 44.133253,61.482738   z "
     id="path169" />
  <path
     style="fill:#ffff00;fill-rule:evenodd;fill-opacity:1;stroke:none;"
     d="  M 44.133253,61.482738   L 46.092065,61.08298   L 47.171411,59.803755   L 47.571169,58.124773   L 47.171411,56.44579   L 46.092065,55.206541   L 44.133253,54.766808   L 42.414294,55.206541   L 41.374924,56.44579   L 40.695336,58.124773   L 41.374924,59.803755   L 42.414294,61.08298   L 44.133253,61.482738   z "
     id="path171" />
  <path
     style="fill:none;stroke:#0000ff;stroke-width:1.2792248px;stroke-linecap:round;stroke-linejoin:round;stroke-miterlimit:10;stroke-dasharray:none;stroke-opacity:1;"
     d="  M 44.133253,61.482738   L 46.092065,61.08298   L 47.171411,59.803755   L 47.571169,58.124773   L 47.171411,56.44579   L 46.092065,55.206541   L 44.133253,54.766808   L 42.414294,55.206541   L 41.374924,56.44579   L 40.695336,58.124773   L 41.374924,59.803755   L 42.414294,61.08298   L 44.133253,61.482738   z "
     id="path173" />
  <path
     style="fill:#ffffff;fill-rule:evenodd;fill-opacity:1;stroke:none;"
     d="  M 17.029679,75.234403   L 18.708661,74.834646   L 19.987886,73.515445   L 20.387644,71.796487   L 19.987886,70.077529   L 18.708661,68.798304   L 17.029679,68.358571   L 15.350697,68.798304   L 14.311326,70.077529   L 13.671714,71.796487   L 14.311326,73.515445   L 15.350697,74.834646   L 17.029679,75.234403   z "
     id="path175" />
  <path
     style="fill:#ffffff;fill-rule:evenodd;fill-opacity:1;stroke:none;"
     d="  M 44.133253,75.234403   L 46.092065,74.834646   L 47.171411,73.515445   L 47.571169,71.796487   L 47.171411,70.077529   L 46.092065,68.798304   L 44.133253,68.358571   L 42.414294,68.798304   L 41.374924,70.077529   L 40.695336,71.796487   L 41.374924,73.515445   L 42.414294,74.834646   L 44.133253,75.234403   L 44.133253,75.234403   z "
     id="path177" />
  <path
     style="fill:#ffffff;fill-rule:evenodd;fill-opacity:1;stroke:none;"
     d="  M 57.924894,75.234403   L 59.643852,74.834646   L 60.683222,73.515445   L 61.322835,71.796487   L 60.683222,70.077529   L 59.643852,68.798304   L 57.924894,68.358571   L 56.205936,68.798304   L 54.926711,70.077529   L 54.287099,71.796487   L 54.926711,73.515445   L 56.205936,74.834646   L 57.924894,75.234403   z "
     id="path179" />
</svg>
