<?xml version="1.0" encoding="UTF-8" standalone="no"?>
<svg
   xmlns:dc="http://purl.org/dc/elements/1.1/"
   xmlns:cc="http://creativecommons.org/ns#"
   xmlns:rdf="http://www.w3.org/1999/02/22-rdf-syntax-ns#"
   xmlns:svg="http://www.w3.org/2000/svg"
   xmlns="http://www.w3.org/2000/svg"
   xmlns:sodipodi="http://sodipodi.sourceforge.net/DTD/sodipodi-0.dtd"
   xmlns:inkscape="http://www.inkscape.org/namespaces/inkscape"
   version="1.0"
   width="13.19mm"
   height="14.73mm"
   id="svg251"
   sodipodi:docname="3x3_grid4.svg"
   inkscape:version="0.92.3 (2405546, 2018-03-11)">
  <metadata
     id="metadata255">
    <rdf:RDF>
      <cc:Work
         rdf:about="">
        <dc:format>image/svg+xml</dc:format>
        <dc:type
           rdf:resource="http://purl.org/dc/dcmitype/StillImage" />
        <dc:title></dc:title>
      </cc:Work>
    </rdf:RDF>
  </metadata>
  <sodipodi:namedview
     pagecolor="#ffffff"
     bordercolor="#666666"
     borderopacity="1"
     objecttolerance="10"
     gridtolerance="10"
     guidetolerance="10"
     inkscape:pageopacity="0"
     inkscape:pageshadow="2"
     inkscape:window-width="1920"
     inkscape:window-height="986"
     id="namedview253"
     showgrid="false"
     inkscape:zoom="4.2390814"
     inkscape:cx="24.925983"
     inkscape:cy="27.83622"
     inkscape:window-x="-11"
     inkscape:window-y="-11"
     inkscape:window-maximized="1"
     inkscape:current-layer="svg251" />
  <defs
     id="defs191">
    <clipPath
       clipPathUnits="userSpaceOnUse"
       id="clipEmfPath1">
      <path
         d="M 3.8376741,3.677771 L 53.727438,3.677771 L 53.727438,59.483949 L 3.8376741,59.483949 z"
         id="path187" />
    </clipPath>
    <pattern
       id="EMFhbasepattern"
       patternUnits="userSpaceOnUse"
       width="6"
       height="6"
       x="0"
       y="0" />
  </defs>
  <path
     style="fill:#ffff00;fill-opacity:1;fill-rule:evenodd;stroke:none;stroke-width:0.87779337"
     d="M 6.6028417,9.4484611 V 49.238853 H 46.320265 V 9.4484611 Z"
     id="path193"
     inkscape:connector-curvature="0" />
  <path
     style="fill:none;stroke:#2f528f;stroke-width:1.27922475px;stroke-linecap:butt;stroke-linejoin:miter;stroke-miterlimit:8;stroke-dasharray:none;stroke-opacity:1"
     clip-path="url(#clipEmfPath1)"
     d="M 5.0369473,5.0369473 H 52.368262 V 48.370684 H 5.0369473 Z"
     id="path195"
     inkscape:connector-curvature="0"
     transform="matrix(0.83913627,0,0,0.91823126,2.3761565,4.8233787)" />
  <path
     style="fill:#0000ff;fill-opacity:1;fill-rule:evenodd;stroke:none;stroke-width:0.87779337"
     d="m 13.177686,18.40497 1.677255,-0.403777 1.257943,-1.248038 0.419314,-1.651815 -0.419314,-1.651815 -1.257943,-1.229685 -1.677255,-0.422131 -1.677257,0.422131 -1.039898,1.229685 -0.6373583,1.651815 0.6373583,1.651815 1.039898,1.248038 z"
     id="path197"
     inkscape:connector-curvature="0" />
  <path
     style="fill:none;stroke:#0000ff;stroke-width:1.122895px;stroke-linecap:round;stroke-linejoin:round;stroke-miterlimit:10;stroke-dasharray:none;stroke-opacity:1"
     d="m 13.177686,18.40497 1.677255,-0.403777 1.257943,-1.248038 0.419314,-1.651815 -0.419314,-1.651815 -1.257943,-1.229685 -1.677255,-0.422131 -1.677257,0.422131 -1.039898,1.229685 -0.6373583,1.651815 0.6373583,1.651815 1.039898,1.248038 z"
     id="path199"
     inkscape:connector-curvature="0" />
  <path
     style="fill:#0000ff;fill-opacity:1;fill-rule:evenodd;stroke:none;stroke-width:0.87779337"
     d="m 26.595734,18.40497 1.677256,-0.403777 1.257942,-1.248038 0.419314,-1.651815 -0.419314,-1.651815 -1.257942,-1.229685 -1.677256,-0.422131 -1.677256,0.422131 -1.039899,1.229685 -0.637358,1.651815 0.637358,1.651815 1.039899,1.248038 z"
     id="path201"
     inkscape:connector-curvature="0" />
  <path
     style="fill:none;stroke:#0000ff;stroke-width:1.122895px;stroke-linecap:round;stroke-linejoin:round;stroke-miterlimit:10;stroke-dasharray:none;stroke-opacity:1"
     d="m 26.595734,18.40497 1.677256,-0.403777 1.257942,-1.248038 0.419314,-1.651815 -0.419314,-1.651815 -1.257942,-1.229685 -1.677256,-0.422131 -1.677256,0.422131 -1.039899,1.229685 -0.637358,1.651815 0.637358,1.651815 1.039899,1.248038 z"
     id="path203"
     inkscape:connector-curvature="0" />
  <path
     style="fill:#ffffff;fill-opacity:1;fill-rule:evenodd;stroke:none;stroke-width:0.87779337"
     d="m 40.013782,18.40497 1.912071,-0.403777 1.039899,-1.248038 0.402542,-1.651815 -0.402542,-1.651815 -1.039899,-1.211332 -1.912071,-0.440484 -1.677256,0.440484 -1.039899,1.211332 -0.637357,1.651815 0.637357,1.651815 1.039899,1.248038 z"
     id="path205"
     inkscape:connector-curvature="0" />
  <path
     style="fill:#ffff00;fill-opacity:1;fill-rule:evenodd;stroke:none;stroke-width:0.87779337"
     d="m 40.013782,18.40497 1.912071,-0.403777 1.039899,-1.248038 0.402542,-1.651815 -0.402542,-1.651815 -1.039899,-1.211332 -1.912071,-0.440484 -1.677256,0.440484 -1.039899,1.211332 -0.637357,1.651815 0.637357,1.651815 1.039899,1.248038 z"
     id="path207"
     inkscape:connector-curvature="0" />
  <path
     style="fill:none;stroke:#0000ff;stroke-width:1.122895px;stroke-linecap:round;stroke-linejoin:round;stroke-miterlimit:10;stroke-dasharray:none;stroke-opacity:1"
     d="m 40.013782,18.40497 1.912071,-0.403777 1.039899,-1.248038 0.402542,-1.651815 -0.402542,-1.651815 -1.039899,-1.211332 -1.912071,-0.440484 -1.677256,0.440484 -1.039899,1.211332 -0.637357,1.651815 0.637357,1.651815 1.039899,1.248038 z"
     id="path209"
     inkscape:connector-curvature="0" />
  <path
     style="fill:#ffffff;fill-opacity:1;fill-rule:evenodd;stroke:none;stroke-width:0.87779337"
     d="m 13.177686,31.913148 1.677255,-0.422131 1.257943,-1.266392 0.419314,-1.688522 -0.419314,-1.688522 -1.257943,-1.266392 -1.677255,-0.42213 -1.677257,0.42213 -1.039898,1.266392 -0.6373583,1.688522 0.6373583,1.688522 1.039898,1.266392 z"
     id="path211"
     inkscape:connector-curvature="0" />
  <path
     style="fill:#ffff00;fill-opacity:1;fill-rule:evenodd;stroke:none;stroke-width:0.87779337"
     d="m 13.177686,31.913148 1.677255,-0.422131 1.257943,-1.266392 0.419314,-1.688522 -0.419314,-1.688522 -1.257943,-1.266392 -1.677255,-0.42213 -1.677257,0.42213 -1.039898,1.266392 -0.6373583,1.688522 0.6373583,1.688522 1.039898,1.266392 z"
     id="path213"
     inkscape:connector-curvature="0" />
  <path
     style="fill:none;stroke:#0000ff;stroke-width:1.122895px;stroke-linecap:round;stroke-linejoin:round;stroke-miterlimit:10;stroke-dasharray:none;stroke-opacity:1"
     d="m 13.177686,31.913148 1.677255,-0.422131 1.257943,-1.266392 0.419314,-1.688522 -0.419314,-1.688522 -1.257943,-1.266392 -1.677255,-0.42213 -1.677257,0.42213 -1.039898,1.266392 -0.6373583,1.688522 0.6373583,1.688522 1.039898,1.266392 z"
     id="path215"
     inkscape:connector-curvature="0" />
  <path
     style="fill:#ffffff;fill-opacity:1;fill-rule:evenodd;stroke:none;stroke-width:0.87779337"
     d="m 26.595734,31.913148 1.677256,-0.422131 1.257942,-1.266392 0.419314,-1.688522 -0.419314,-1.688522 -1.257942,-1.266392 -1.677256,-0.42213 -1.677256,0.42213 -1.039899,1.266392 -0.637358,1.688522 0.637358,1.688522 1.039899,1.266392 z"
     id="path217"
     inkscape:connector-curvature="0" />
  <path
     style="fill:#ffff00;fill-opacity:1;fill-rule:evenodd;stroke:none;stroke-width:0.87779337"
     d="m 26.595734,31.913148 1.677256,-0.422131 1.257942,-1.266392 0.419314,-1.688522 -0.419314,-1.688522 -1.257942,-1.266392 -1.677256,-0.42213 -1.677256,0.42213 -1.039899,1.266392 -0.637358,1.688522 0.637358,1.688522 1.039899,1.266392 z"
     id="path219"
     inkscape:connector-curvature="0" />
  <path
     style="fill:none;stroke:#0000ff;stroke-width:1.122895px;stroke-linecap:round;stroke-linejoin:round;stroke-miterlimit:10;stroke-dasharray:none;stroke-opacity:1"
     d="m 26.595734,31.913148 1.677256,-0.422131 1.257942,-1.266392 0.419314,-1.688522 -0.419314,-1.688522 -1.257942,-1.266392 -1.677256,-0.42213 -1.677256,0.42213 -1.039899,1.266392 -0.637358,1.688522 0.637358,1.688522 1.039899,1.266392 z"
     id="path221"
     inkscape:connector-curvature="0" />
  <path
     style="fill:#0000ff;fill-opacity:1;fill-rule:evenodd;stroke:none;stroke-width:0.87779337"
     d="m 40.013782,31.913148 1.912071,-0.403778 1.039899,-1.284745 0.402542,-1.688522 -0.402542,-1.688522 -1.039899,-1.248038 -1.912071,-0.440484 -1.677256,0.440484 -1.039899,1.248038 -0.637357,1.688522 0.637357,1.688522 1.039899,1.284745 z"
     id="path223"
     inkscape:connector-curvature="0" />
  <path
     style="fill:none;stroke:#0000ff;stroke-width:1.122895px;stroke-linecap:round;stroke-linejoin:round;stroke-miterlimit:10;stroke-dasharray:none;stroke-opacity:1"
     d="m 40.013782,31.913148 1.912071,-0.403778 1.039899,-1.284745 0.402542,-1.688522 -0.402542,-1.688522 -1.039899,-1.248038 -1.912071,-0.440484 -1.677256,0.440484 -1.039899,1.248038 -0.637357,1.688522 0.637357,1.688522 1.039899,1.284745 z"
     id="path225"
     inkscape:connector-curvature="0" />
  <path
     style="fill:#ffffff;fill-opacity:1;fill-rule:evenodd;stroke:none;stroke-width:0.87779337"
     d="m 13.177686,45.274497 1.677255,-0.403777 1.257943,-1.248039 0.419314,-1.651814 -0.419314,-1.651815 -1.257943,-1.229686 -1.677255,-0.42213 -1.677257,0.42213 -1.039898,1.229686 -0.6373583,1.651815 0.6373583,1.651814 1.039898,1.248039 z"
     id="path227"
     inkscape:connector-curvature="0" />
  <path
     style="fill:#ffff00;fill-opacity:1;fill-rule:evenodd;stroke:none;stroke-width:0.87779337"
     d="m 13.177686,45.274497 1.677255,-0.403777 1.257943,-1.248039 0.419314,-1.651814 -0.419314,-1.651815 -1.257943,-1.229686 -1.677255,-0.42213 -1.677257,0.42213 -1.039898,1.229686 -0.6373583,1.651815 0.6373583,1.651814 1.039898,1.248039 z"
     id="path229"
     inkscape:connector-curvature="0" />
  <path
     style="fill:none;stroke:#0000ff;stroke-width:1.122895px;stroke-linecap:round;stroke-linejoin:round;stroke-miterlimit:10;stroke-dasharray:none;stroke-opacity:1"
     d="m 13.177686,45.274497 1.677255,-0.403777 1.257943,-1.248039 0.419314,-1.651814 -0.419314,-1.651815 -1.257943,-1.229686 -1.677255,-0.42213 -1.677257,0.42213 -1.039898,1.229686 -0.6373583,1.651815 0.6373583,1.651814 1.039898,1.248039 z"
     id="path231"
     inkscape:connector-curvature="0" />
  <path
     style="fill:#ffffff;fill-opacity:1;fill-rule:evenodd;stroke:none;stroke-width:0.87779337"
     d="m 26.595734,45.274497 1.677256,-0.403777 1.257942,-1.248039 0.419314,-1.651814 -0.419314,-1.651815 -1.257942,-1.229686 -1.677256,-0.42213 -1.677256,0.42213 -1.039899,1.229686 -0.637358,1.651815 0.637358,1.651814 1.039899,1.248039 z"
     id="path233"
     inkscape:connector-curvature="0" />
  <path
     style="fill:#ffff00;fill-opacity:1;fill-rule:evenodd;stroke:none;stroke-width:0.87779337"
     d="m 26.595734,45.274497 1.677256,-0.403777 1.257942,-1.248039 0.419314,-1.651814 -0.419314,-1.651815 -1.257942,-1.229686 -1.677256,-0.42213 -1.677256,0.42213 -1.039899,1.229686 -0.637358,1.651815 0.637358,1.651814 1.039899,1.248039 z"
     id="path235"
     inkscape:connector-curvature="0" />
  <path
     style="fill:none;stroke:#0000ff;stroke-width:1.122895px;stroke-linecap:round;stroke-linejoin:round;stroke-miterlimit:10;stroke-dasharray:none;stroke-opacity:1"
     d="m 26.595734,45.274497 1.677256,-0.403777 1.257942,-1.248039 0.419314,-1.651814 -0.419314,-1.651815 -1.257942,-1.229686 -1.677256,-0.42213 -1.677256,0.42213 -1.039899,1.229686 -0.637358,1.651815 0.637358,1.651814 1.039899,1.248039 z"
     id="path237"
     inkscape:connector-curvature="0" />
  <path
     style="fill:#ffffff;fill-opacity:1;fill-rule:evenodd;stroke:none;stroke-width:0.87779337"
     d="m 40.013782,45.274497 1.912071,-0.403777 1.039899,-1.248039 0.402542,-1.651814 -0.402542,-1.651815 -1.039899,-1.211332 -1.912071,-0.440484 -1.677256,0.440484 -1.039899,1.211332 -0.637357,1.651815 0.637357,1.651814 1.039899,1.248039 z"
     id="path239"
     inkscape:connector-curvature="0" />
  <path
     style="fill:#ffff00;fill-opacity:1;fill-rule:evenodd;stroke:none;stroke-width:0.87779337"
     d="m 40.013782,45.274497 1.912071,-0.403777 1.039899,-1.248039 0.402542,-1.651814 -0.402542,-1.651815 -1.039899,-1.211332 -1.912071,-0.440484 -1.677256,0.440484 -1.039899,1.211332 -0.637357,1.651815 0.637357,1.651814 1.039899,1.248039 z"
     id="path241"
     inkscape:connector-curvature="0" />
  <path
     style="fill:none;stroke:#0000ff;stroke-width:1.122895px;stroke-linecap:round;stroke-linejoin:round;stroke-miterlimit:10;stroke-dasharray:none;stroke-opacity:1"
     d="m 40.013782,45.274497 1.912071,-0.403777 1.039899,-1.248039 0.402542,-1.651814 -0.402542,-1.651815 -1.039899,-1.211332 -1.912071,-0.440484 -1.677256,0.440484 -1.039899,1.211332 -0.637357,1.651815 0.637357,1.651814 1.039899,1.248039 z"
     id="path243"
     inkscape:connector-curvature="0" />
  <path
     style="fill:#ffffff;fill-opacity:1;fill-rule:evenodd;stroke:none;stroke-width:0.87779337"
     d="m 13.177686,58.782674 1.677255,-0.42213 1.257943,-1.266392 0.419314,-1.688522 -0.419314,-1.688522 -1.257943,-1.266391 -1.677255,-0.422132 -1.677257,0.422132 -1.039898,1.266391 -0.6373583,1.688522 0.6373583,1.688522 1.039898,1.266392 z"
     id="path245"
     inkscape:connector-curvature="0" />
  <path
     style="fill:#ffffff;fill-opacity:1;fill-rule:evenodd;stroke:none;stroke-width:0.87779337"
     d="m 26.595734,58.782674 1.677256,-0.42213 1.257942,-1.266392 0.419314,-1.688522 -0.419314,-1.688522 -1.257942,-1.266391 -1.677256,-0.422132 -1.677256,0.422132 -1.039899,1.266391 -0.637358,1.688522 0.637358,1.688522 1.039899,1.266392 z"
     id="path247"
     inkscape:connector-curvature="0" />
  <path
     style="fill:#ffffff;fill-opacity:1;fill-rule:evenodd;stroke:none;stroke-width:0.87779337"
     d="m 40.013782,58.782674 1.912071,-0.403777 1.039899,-1.284745 0.402542,-1.688522 -0.402542,-1.688522 -1.039899,-1.248039 -1.912071,-0.440484 -1.677256,0.440484 -1.039899,1.248039 -0.637357,1.688522 0.637357,1.688522 1.039899,1.284745 z"
     id="path249"
     inkscape:connector-curvature="0" />
</svg>
